<svg xmlns="http://www.w3.org/2000/svg" width="36" height="36" viewBox="0 0 36 36">
  <defs>
    <radialGradient id="ig1" cx="30%" cy="107%" r="150%" fx="30%" fy="107%">
      <stop offset="0%" stop-color="#FED373"/>
      <stop offset="5%" stop-color="#F15245"/>
      <stop offset="45%" stop-color="#D92E7F"/>
      <stop offset="60%" stop-color="#9B36B7"/>
      <stop offset="90%" stop-color="#515ECF"/>
    </radialGradient>
  </defs>
  <circle cx="18" cy="18" r="18" fill="url(#ig1)"/>
  <path d="M18 9.68c2.7 0 3.02.01 4.09.06 1.97.09 2.86.42 3.53.7.89.34 1.52.76 2.18 1.43.67.67 1.09 1.3 1.43 2.18.28.67.61 1.56.7 3.53.05 1.07.06 1.39.06 4.09s-.01 3.02-.06 4.09c-.09 1.97-.42 2.86-.7 3.53-.34.89-.76 1.52-1.43 2.18-.67.67-1.3 1.09-2.18 1.43-.67.28-1.56.61-3.53.7-1.07.05-1.39.06-4.09.06s-3.02-.01-4.09-.06c-1.97-.09-2.86-.42-3.53-.7-.89-.34-1.52-.76-2.18-1.43-.67-.67-1.09-1.3-1.43-2.18-.28-.67-.61-1.56-.7-3.53C6.02 21.02 6 20.7 6 18s.01-3.02.06-4.09c.09-1.97.42-2.86.7-3.53.34-.89.76-1.52 1.43-2.18.67-.67 1.3-1.09 2.18-1.43.67-.28 1.56-.61 3.53-.7C14.98 9.69 15.3 9.68 18 9.68zM18 7.5c-2.74 0-3.09.01-4.16.06-1.08.05-1.81.22-2.45.47a4.95 4.95 0 00-1.79 1.16A4.95 4.95 0 008.44 11c-.25.64-.42 1.37-.47 2.45C7.91 14.53 7.9 14.88 7.9 17.62v.76c0 2.74.01 3.09.06 4.16.05 1.08.22 1.81.47 2.45a4.95 4.95 0 001.16 1.79A4.95 4.95 0 0011.38 28c.64.25 1.37.42 2.45.47 1.08.05 1.42.06 4.16.06s3.09-.01 4.16-.06c1.08-.05 1.81-.22 2.45-.47a4.95 4.95 0 001.79-1.16A4.95 4.95 0 0027.56 25c.25-.64.42-1.37.47-2.45.05-1.08.06-1.42.06-4.16v-.76c0-2.74-.01-3.09-.06-4.16-.05-1.08-.22-1.81-.47-2.45a4.95 4.95 0 00-1.16-1.79A4.95 4.95 0 0024.62 8.03c-.64-.25-1.37-.42-2.45-.47C21.09 7.51 20.74 7.5 18 7.5z" fill="#fff"/>
  <path d="M18 12.59a5.41 5.41 0 100 10.82 5.41 5.41 0 000-10.82zm0 8.93a3.51 3.51 0 110-7.03 3.51 3.51 0 010 7.03z" fill="#fff"/>
  <circle cx="23.63" cy="12.37" r="1.26" fill="#fff"/>
</svg>
