<svg xmlns="http://www.w3.org/2000/svg" width="36" height="36" viewBox="0 0 36 36">
  <circle cx="18" cy="18" r="18" fill="#25D366"/>
  <path d="M26.58 9.37A11.37 11.37 0 0018.15 6C12.07 6 7.14 10.93 7.14 17.01c0 1.94.51 3.83 1.47 5.49L7 28.5l6.16-1.62a11.12 11.12 0 005.33 1.36h0A11.02 11.02 0 0029.5 17.23c0-2.95-1.15-5.73-3.24-7.82l.32-.04zM18.16 26.4h0a9.23 9.23 0 01-4.71-1.29l-.34-.2-3.51.92.94-3.42-.22-.35a9.21 9.21 0 01-1.42-4.92A9.19 9.19 0 0118.16 8.02a9.12 9.12 0 016.48 2.7 9.15 9.15 0 012.68 6.52c-.01 5.06-4.12 9.16-9.16 9.16zm5.03-6.86c-.28-.14-1.63-.8-1.88-.89-.26-.1-.44-.14-.63.14-.19.28-.72.89-.88 1.08-.16.19-.32.21-.6.07-.28-.14-1.17-.43-2.23-1.37-.82-.74-1.38-1.65-1.54-1.93-.16-.28-.02-.43.12-.57.13-.12.28-.33.42-.49.14-.16.19-.28.28-.47.1-.19.05-.35-.02-.49-.07-.14-.63-1.52-.86-2.08-.23-.54-.46-.47-.63-.48l-.54-.01c-.19 0-.49.07-.74.35-.26.28-.98.95-.98 2.33s1 2.7 1.14 2.89c.14.19 1.98 3.02 4.79 4.23.67.29 1.19.46 1.6.59.67.22 1.28.19 1.77.11.54-.08 1.63-.67 1.86-1.31.24-.65.24-1.2.16-1.31-.07-.12-.26-.19-.53-.33z" fill="#fff"/>
</svg>
