<svg xmlns="http://www.w3.org/2000/svg" width="36" height="36" viewBox="0 0 36 36" fill="none">
  <circle cx="18" cy="18" r="18" fill="#25D366"/>
  <path d="M26.16 9.78A11.15 11.15 0 0018.1 6.5c-6.18 0-11.2 5.02-11.2 11.2 0 1.97.51 3.9 1.49 5.6L6.8 29.5l6.36-1.67a11.17 11.17 0 005.35 1.36h.01c6.17 0 11.19-5.02 11.2-11.2 0-2.99-1.16-5.8-3.28-7.92l.72-.29zm-8.06 17.23h-.01a9.28 9.28 0 01-4.73-1.3l-.34-.2-3.52.92.94-3.44-.22-.35a9.28 9.28 0 01-1.43-4.94c0-5.13 4.18-9.31 9.32-9.31a9.27 9.27 0 016.59 2.73 9.27 9.27 0 012.72 6.59c0 5.14-4.18 9.32-9.32 9.3zm5.11-6.97c-.28-.14-1.66-.82-1.91-.91-.26-.1-.45-.14-.63.14-.19.28-.72.91-.88 1.1-.16.19-.33.21-.61.07-.28-.14-1.18-.44-2.25-1.39-.83-.74-1.39-1.66-1.56-1.94-.16-.28-.02-.43.12-.57.13-.13.28-.33.42-.5.14-.16.19-.28.28-.47.1-.19.05-.35-.02-.5-.07-.14-.63-1.52-.87-2.08-.23-.55-.46-.47-.63-.48h-.54c-.19 0-.5.07-.75.35-.26.28-.99.96-.99 2.35s1.01 2.73 1.15 2.92c.14.19 1.99 3.04 4.83 4.26.67.29 1.2.46 1.61.59.68.22 1.29.19 1.78.11.54-.08 1.66-.68 1.89-1.33.24-.66.24-1.22.17-1.33-.07-.12-.26-.19-.54-.33z" fill="#fff"/>
</svg>
