<svg xmlns="http://www.w3.org/2000/svg" width="32" height="32" viewBox="0 0 32 32">
  <!-- Simplified LPLA shield for favicon: teal shield + white mountain peak -->
  <path d="M4 4 Q4 2 6 2 L26 2 Q28 2 28 4 L28 20 Q28 26 16 30 Q4 26 4 20 Z" fill="#1B5E7F"/>
  <path d="M4 4 Q4 2 6 2 L26 2 Q28 2 28 4 L28 12 L4 12 Z" fill="#5BA3C9"/>
  <!-- Mountain peaks -->
  <path d="M8 18 L14 8 L20 18" fill="none" stroke="rgba(255,255,255,.35)" stroke-width="1.5" stroke-linejoin="round"/>
  <path d="M12 18 L18 6 L24 18" fill="none" stroke="#fff" stroke-width="2" stroke-linejoin="round"/>
  <path d="M16 9 L18 6 L20 9" fill="#fff"/>
  <!-- Green accent bar -->
  <rect x="4" y="18" width="24" height="2.5" rx="1" fill="#4A6E1A"/>
  <!-- L letter hint -->
  <text x="16" y="27" text-anchor="middle" font-family="Arial,sans-serif" font-size="7" font-weight="900" fill="#fff" letter-spacing="0.5">LPLA</text>
</svg>
